# 3ds Max Wavefront OBJ Exporter v0.97b - (c)2007 guruware
# File Created: 13.10.2017 00:10:22

mtllib Meuble_tv_Z_axes_fix.mtl

#
# object Meable_TV
#

v  -59.7500 30.3000 20.8000
v  -58.2500 30.3000 20.8000
v  -58.2500 30.3000 -21.0500
v  -59.7500 30.3000 -21.0500
v  -59.7500 0.0000 20.8000
v  -59.7500 0.0000 -21.0500
v  -58.2500 0.0000 -21.0500
v  -58.2500 0.0000 20.8000
v  58.2500 30.3000 20.8000
v  59.7500 30.3000 20.8000
v  59.7500 30.3000 -21.0500
v  58.2500 30.3000 -21.0500
v  58.2500 0.0000 20.8000
v  58.2500 0.0000 -21.0500
v  59.7500 0.0000 -21.0500
v  59.7500 0.0000 20.8000
v  -60.0000 31.8000 21.0500
v  60.0000 31.8000 21.0500
v  60.0000 31.8000 -21.0500
v  -60.0000 31.8000 -21.0500
v  -60.0000 30.3000 21.0500
v  -60.0000 30.3000 -21.0500
v  60.0000 30.3000 -21.0500
v  60.0000 30.3000 21.0500
v  -58.2500 4.5000 20.5500
v  58.2500 4.5000 20.5500
v  58.2500 4.5000 -21.0500
v  -58.2500 4.5000 -21.0500
v  -58.2500 3.0000 20.5500
v  -58.2500 3.0000 -21.0500
v  58.2500 3.0000 -21.0500
v  58.2500 3.0000 20.5500
v  10.2419 30.3000 20.3000
v  11.7419 30.3000 20.3000
v  11.7419 30.3000 -21.0500
v  10.2419 30.3000 -21.0500
v  10.2419 4.5000 20.3000
v  10.2419 4.5000 -21.0500
v  11.7419 4.5000 -21.0500
v  11.7419 4.5000 20.3000
v  10.2419 30.3000 20.0760
v  10.2419 30.3000 18.5760
v  -58.2500 30.3000 18.5760
v  -58.2500 30.3000 20.0760
v  10.2419 21.9673 20.0760
v  -58.2500 21.9673 20.0760
v  -58.2500 21.9673 18.5760
v  10.2419 21.9673 18.5760
v  11.7419 18.1500 19.0500
v  58.2500 18.1500 19.0500
v  58.2500 18.1500 -21.0500
v  11.7419 18.1500 -21.0500
v  11.7419 16.6500 19.0500
v  11.7419 16.6500 -21.0500
v  58.2500 16.6500 -21.0500
v  58.2500 16.6500 19.0500
v  10.2419 30.3000 -19.0613
v  10.2419 30.3000 -20.5613
v  -58.2500 30.3000 -20.5613
v  -58.2500 30.3000 -19.0613
v  10.2419 4.5000 -19.0613
v  -58.2500 4.5000 -19.0613
v  -58.2500 4.5000 -20.5613
v  10.2419 4.5000 -20.5613
v  -31.0233 17.6400 21.2188
v  -31.0233 17.5823 21.5834
v  -16.9848 17.5823 21.5834
v  -16.9848 17.6400 21.2188
v  -31.0233 16.3482 21.2188
v  -31.0233 16.4810 20.8541
v  -16.9848 16.4810 20.8541
v  -16.9848 16.3482 21.2188
v  -31.0233 16.6545 21.8508
v  -16.9848 16.6545 21.8508
v  -16.9848 16.9941 21.9418
v  -31.0233 16.9941 21.9418
v  -31.0233 16.4810 20.0760
v  -16.9848 16.4810 20.0760
v  -16.9848 17.5072 20.0760
v  -31.0233 17.5072 20.0760
v  -31.0233 17.5072 20.8541
v  -16.9848 17.5072 20.8541
v  -31.0233 17.3337 21.8508
v  -16.9848 17.3337 21.8509
v  -31.0233 16.4059 21.5834
v  -16.9848 16.4059 21.5834
v  -31.0233 16.9941 21.5834
v  -31.0233 16.9941 21.2188
v  -31.0233 16.9941 20.8541
v  -31.0233 16.9941 20.0760
v  -16.9848 16.9941 20.0760
v  -16.9848 16.9941 20.8541
v  -16.9848 16.9941 21.5834
v  -16.9848 16.9941 21.2188
v  10.1419 21.8673 20.0760
v  10.1419 21.8673 18.5760
v  -58.1500 21.8673 18.5760
v  -58.1500 21.8673 20.0760
v  10.1419 4.6000 20.0760
v  -58.1500 4.6000 20.0760
v  -58.1500 4.6000 18.5760
v  10.1419 4.6000 18.5760
# 102 vertices

vn 0.0000 1.0000 -0.0000
vn 0.0000 -1.0000 -0.0000
vn 0.0000 0.0000 1.0000
vn 1.0000 0.0000 -0.0000
vn 0.0000 0.0000 -1.0000
vn -1.0000 0.0000 -0.0000
vn 0.0000 1.0000 0.0000
vn -0.0000 0.0000 1.0000
vn 0.0000 -0.0000 -1.0000
vn -0.0000 0.0000 -1.0000
vn 0.0000 -0.0000 1.0000
vn -0.0000 1.0000 0.0000
vn -0.0000 0.9954 -0.0959
vn -0.0000 0.8991 0.4377
vn 0.0000 -0.9954 -0.0959
vn 0.0000 -0.9848 -0.1738
vn 0.0000 -0.5157 0.8568
vn -0.0000 -0.5157 0.8568
vn -0.0000 -0.0000 1.0000
vn 0.0000 -1.0000 0.0000
vn -0.0000 1.0000 -0.0000
vn -0.0000 0.9848 -0.1738
vn -0.0000 0.5157 0.8568
vn 0.0000 -0.8991 0.4377
vn -1.0000 -0.0000 -0.0000
vn -1.0000 0.0000 0.0000
vn -1.0000 -0.0000 0.0000
vn 1.0000 -0.0000 0.0000
vn 1.0000 0.0000 0.0000
vn 1.0000 -0.0000 -0.0000
vn -0.0000 -0.0000 -1.0000
# 31 vertex normals

vt 0.5066 0.7278 0.0000
vt 0.5066 0.7215 0.0000
vt 0.6820 0.7215 0.0000
vt 0.6820 0.7278 0.0000
vt 0.9738 0.9106 0.0000
vt 0.7984 0.9106 0.0000
vt 0.7984 0.9043 0.0000
vt 0.9738 0.9043 0.0000
vt 0.9370 0.5597 0.0000
vt 0.8100 0.5597 0.0000
vt 0.8100 0.5534 0.0000
vt 0.9370 0.5534 0.0000
vt 0.9854 0.3875 0.0000
vt 0.9854 0.5145 0.0000
vt 0.8100 0.5145 0.0000
vt 0.8100 0.3875 0.0000
vt 0.6336 0.7504 0.0000
vt 0.5066 0.7504 0.0000
vt 0.5066 0.7441 0.0000
vt 0.6336 0.7441 0.0000
vt 0.9079 0.0020 0.0000
vt 0.9079 0.1290 0.0000
vt 0.7325 0.1290 0.0000
vt 0.7325 0.0020 0.0000
vt 0.7984 0.8880 0.0000
vt 0.7984 0.8818 0.0000
vt 0.9738 0.8818 0.0000
vt 0.9738 0.8880 0.0000
vt 0.9738 0.8655 0.0000
vt 0.7984 0.8655 0.0000
vt 0.7984 0.8592 0.0000
vt 0.9738 0.8592 0.0000
vt 0.1290 0.9960 0.0000
vt 0.0020 0.9960 0.0000
vt 0.0020 0.9897 0.0000
vt 0.1290 0.9897 0.0000
vt 0.6820 0.5782 0.0000
vt 0.6820 0.7052 0.0000
vt 0.5066 0.7052 0.0000
vt 0.5066 0.5782 0.0000
vt 0.8332 0.9558 0.0000
vt 0.7062 0.9558 0.0000
vt 0.7062 0.9495 0.0000
vt 0.8332 0.9495 0.0000
vt 0.9079 0.1948 0.0000
vt 0.9079 0.3218 0.0000
vt 0.7325 0.3218 0.0000
vt 0.7325 0.1948 0.0000
vt 0.5050 0.1785 0.0000
vt 0.0020 0.1785 0.0000
vt 0.0020 0.0020 0.0000
vt 0.5050 0.0020 0.0000
vt 0.5050 0.1948 0.0000
vt 0.5050 0.3712 0.0000
vt 0.0020 0.3712 0.0000
vt 0.0020 0.1948 0.0000
vt 0.9980 0.7914 0.0000
vt 0.9980 0.7977 0.0000
vt 0.4950 0.7977 0.0000
vt 0.4950 0.7914 0.0000
vt 0.1785 0.9671 0.0000
vt 0.1785 0.9734 0.0000
vt 0.0020 0.9734 0.0000
vt 0.0020 0.9671 0.0000
vt 0.9980 0.7689 0.0000
vt 0.9980 0.7751 0.0000
vt 0.4950 0.7751 0.0000
vt 0.4950 0.7689 0.0000
vt 0.9865 0.5308 0.0000
vt 0.9865 0.5371 0.0000
vt 0.8100 0.5371 0.0000
vt 0.8100 0.5308 0.0000
vt 0.4903 0.7526 0.0000
vt 0.0020 0.7526 0.0000
vt 0.0020 0.5782 0.0000
vt 0.4903 0.5782 0.0000
vt 0.4903 0.3875 0.0000
vt 0.4903 0.5619 0.0000
vt 0.0020 0.5619 0.0000
vt 0.0020 0.3875 0.0000
vt 0.9833 0.8366 0.0000
vt 0.9833 0.8429 0.0000
vt 0.4950 0.8429 0.0000
vt 0.4950 0.8366 0.0000
vt 0.9069 0.1453 0.0000
vt 0.9069 0.1516 0.0000
vt 0.7325 0.1516 0.0000
vt 0.7325 0.1453 0.0000
vt 0.9833 0.8140 0.0000
vt 0.9833 0.8203 0.0000
vt 0.4950 0.8203 0.0000
vt 0.4950 0.8140 0.0000
vt 0.9069 0.3381 0.0000
vt 0.9069 0.3443 0.0000
vt 0.7325 0.3443 0.0000
vt 0.7325 0.3381 0.0000
vt 0.3054 0.8996 0.0000
vt 0.3054 0.8933 0.0000
vt 0.4787 0.8933 0.0000
vt 0.4787 0.8996 0.0000
vt 0.9717 0.9332 0.0000
vt 0.7984 0.9332 0.0000
vt 0.7984 0.9269 0.0000
vt 0.9717 0.9269 0.0000
vt 0.8407 0.3669 0.0000
vt 0.7325 0.3669 0.0000
vt 0.7325 0.3606 0.0000
vt 0.8407 0.3606 0.0000
vt 0.4787 0.7689 0.0000
vt 0.4787 0.8770 0.0000
vt 0.3054 0.8770 0.0000
vt 0.3054 0.7689 0.0000
vt 0.4135 0.9222 0.0000
vt 0.3054 0.9222 0.0000
vt 0.3054 0.9159 0.0000
vt 0.4135 0.9159 0.0000
vt 0.8717 0.5782 0.0000
vt 0.8717 0.6863 0.0000
vt 0.6983 0.6863 0.0000
vt 0.6983 0.5782 0.0000
vt 0.4950 0.8880 0.0000
vt 0.4950 0.8818 0.0000
vt 0.7821 0.8818 0.0000
vt 0.7821 0.8880 0.0000
vt 0.4950 0.8592 0.0000
vt 0.7821 0.8592 0.0000
vt 0.7821 0.8655 0.0000
vt 0.4950 0.8655 0.0000
vt 0.9592 0.0083 0.0000
vt 0.9242 0.0083 0.0000
vt 0.9242 0.0020 0.0000
vt 0.9592 0.0020 0.0000
vt 0.7937 0.5120 0.0000
vt 0.7937 0.5469 0.0000
vt 0.5066 0.5469 0.0000
vt 0.5066 0.5120 0.0000
vt 0.9592 0.2010 0.0000
vt 0.9242 0.2010 0.0000
vt 0.9242 0.1948 0.0000
vt 0.9592 0.1948 0.0000
vt 0.2891 0.8933 0.0000
vt 0.2891 0.9282 0.0000
vt 0.0020 0.9282 0.0000
vt 0.0020 0.8933 0.0000
vt 0.7162 0.3628 0.0000
vt 0.5213 0.3628 0.0000
vt 0.5213 0.1948 0.0000
vt 0.7162 0.1948 0.0000
vt 0.7162 0.0020 0.0000
vt 0.7162 0.1701 0.0000
vt 0.5213 0.1701 0.0000
vt 0.5213 0.0020 0.0000
vt 0.1969 0.9445 0.0000
vt 0.1969 0.9508 0.0000
vt 0.0020 0.9508 0.0000
vt 0.0020 0.9445 0.0000
vt 0.8664 0.7026 0.0000
vt 0.8664 0.7089 0.0000
vt 0.6983 0.7089 0.0000
vt 0.6983 0.7026 0.0000
vt 0.6899 0.9495 0.0000
vt 0.6899 0.9558 0.0000
vt 0.4950 0.9558 0.0000
vt 0.4950 0.9495 0.0000
vt 0.6631 0.9721 0.0000
vt 0.6631 0.9784 0.0000
vt 0.4950 0.9784 0.0000
vt 0.4950 0.9721 0.0000
vt 0.4950 0.9106 0.0000
vt 0.4950 0.9043 0.0000
vt 0.7821 0.9043 0.0000
vt 0.7821 0.9106 0.0000
vt 0.4950 0.9269 0.0000
vt 0.7821 0.9269 0.0000
vt 0.7821 0.9332 0.0000
vt 0.4950 0.9332 0.0000
vt 0.8407 0.1742 0.0000
vt 0.7325 0.1742 0.0000
vt 0.7325 0.1679 0.0000
vt 0.8407 0.1679 0.0000
vt 0.7937 0.3875 0.0000
vt 0.7937 0.4957 0.0000
vt 0.5066 0.4957 0.0000
vt 0.5066 0.3875 0.0000
vt 0.9961 0.5845 0.0000
vt 0.8879 0.5845 0.0000
vt 0.8879 0.5782 0.0000
vt 0.9961 0.5782 0.0000
vt 0.2891 0.7689 0.0000
vt 0.2891 0.8770 0.0000
vt 0.0020 0.8770 0.0000
vt 0.0020 0.7689 0.0000
vt 0.1066 0.2541 0.0000
vt 0.1066 0.2334 0.0000
vt 0.8935 0.2334 0.0000
vt 0.8935 0.2541 0.0000
vt 0.1066 0.1323 0.0000
vt 0.1066 0.1106 0.0000
vt 0.8934 0.1106 0.0000
vt 0.8934 0.1323 0.0000
vt 0.1066 0.1735 0.0000
vt 0.8934 0.1735 0.0000
vt 0.8935 0.1932 0.0000
vt 0.1066 0.1932 0.0000
vt 0.1066 0.0670 0.0000
vt 0.8934 0.0670 0.0000
vt 0.8935 0.3194 0.0000
vt 0.1066 0.3194 0.0000
vt 0.1066 0.2758 0.0000
vt 0.8935 0.2758 0.0000
vt 0.1066 0.2129 0.0000
vt 0.8935 0.2129 0.0000
vt 0.1066 0.1530 0.0000
vt 0.8934 0.1530 0.0000
vt 0.0221 0.0053 0.0000
vt 0.0221 0.0382 0.0000
vt 0.0020 0.0382 0.0000
vt 0.0071 0.0192 0.0000
vt 0.0425 0.0382 0.0000
vt 0.0425 0.0020 0.0000
vt 0.0630 0.0095 0.0000
vt 0.0630 0.0382 0.0000
vt 0.0630 0.0670 0.0000
vt 0.0425 0.0744 0.0000
vt 0.0221 0.0712 0.0000
vt 0.0071 0.0573 0.0000
vt 0.1066 0.0382 0.0000
vt 0.1066 0.0095 0.0000
vt 0.8934 0.0382 0.0000
vt 0.8934 0.0094 0.0000
vt 0.9370 0.0094 0.0000
vt 0.9370 0.0382 0.0000
vt 0.9980 0.0382 0.0000
vt 0.9779 0.0382 0.0000
vt 0.9779 0.0052 0.0000
vt 0.9929 0.0192 0.0000
vt 0.9575 0.0382 0.0000
vt 0.9575 0.0020 0.0000
vt 0.9370 0.0670 0.0000
vt 0.9575 0.0744 0.0000
vt 0.9779 0.0712 0.0000
vt 0.9929 0.0572 0.0000
vt 0.0020 0.5942 0.0000
vt 0.0020 0.5723 0.0000
vt 0.9980 0.5723 0.0000
vt 0.9980 0.5942 0.0000
vt 0.0020 0.5355 0.0000
vt 0.9980 0.5355 0.0000
vt 0.9980 0.5574 0.0000
vt 0.0020 0.5574 0.0000
vt 0.2538 0.6310 0.0000
vt 0.0020 0.6310 0.0000
vt 0.0020 0.6091 0.0000
vt 0.2538 0.6091 0.0000
vt 0.9980 0.2688 0.0000
vt 0.9980 0.5206 0.0000
vt 0.0020 0.5206 0.0000
vt 0.0020 0.2688 0.0000
vt 0.2538 0.6678 0.0000
vt 0.0020 0.6678 0.0000
vt 0.0020 0.6459 0.0000
vt 0.2538 0.6459 0.0000
vt 0.9980 0.0020 0.0000
vt 0.9980 0.2538 0.0000
vt 0.0020 0.2538 0.0000
# 265 texture coords

g Meable_TV
usemtl Wood
s 2
f 1/1/1 2/2/1 3/3/1 4/4/1 
s 4
f 5/5/2 6/6/2 7/7/2 8/8/2 
s 8
f 1/9/3 5/10/3 8/11/3 2/12/3 
s 16
f 2/13/4 8/14/4 7/15/4 3/16/4 
s 32
f 3/17/5 7/18/5 6/19/5 4/20/5 
s 64
f 4/21/6 6/22/6 5/23/6 1/24/6 
s 2
f 9/25/1 10/26/1 11/27/1 12/28/1 
s 4
f 13/29/2 14/30/2 15/31/2 16/32/2 
s 8
f 9/33/3 13/34/3 16/35/3 10/36/3 
s 16
f 10/37/4 16/38/4 15/39/4 11/40/4 
s 32
f 11/41/5 15/42/5 14/43/5 12/44/5 
s 64
f 12/45/6 14/46/6 13/47/6 9/48/6 
s 2
f 17/49/1 18/50/1 19/51/1 20/52/1 
s 4
f 21/53/2 22/54/2 23/55/2 24/56/2 
s 8
f 17/57/3 21/58/3 24/59/3 18/60/3 
s 16
f 18/61/4 24/62/4 23/63/4 19/64/4 
s 32
f 19/65/5 23/66/5 22/67/5 20/68/5 
s 64
f 20/69/6 22/70/6 21/71/6 17/72/6 
s 2
f 25/73/7 26/74/7 27/75/7 28/76/7 
s 4
f 29/77/2 30/78/2 31/79/2 32/80/2 
s 8
f 25/81/8 29/82/8 32/83/8 26/84/3 
s 16
f 26/85/4 32/86/4 31/87/4 27/88/4 
s 32
f 27/89/9 31/90/9 30/91/9 28/92/5 
s 64
f 28/93/6 30/94/6 29/95/6 25/96/6 
s 2
f 33/97/1 34/98/1 35/99/1 36/100/1 
s 4
f 37/101/2 38/102/2 39/103/2 40/104/2 
s 8
f 33/105/3 37/106/3 40/107/3 34/108/3 
s 16
f 34/109/4 40/110/4 39/111/4 35/112/4 
s 32
f 35/113/5 39/114/5 38/115/5 36/116/5 
s 64
f 36/117/6 38/118/6 37/119/6 33/120/6 
s 2
f 41/121/1 42/122/1 43/123/1 44/124/1 
s 4
f 45/125/2 46/126/2 47/127/2 48/128/2 
s 8
f 41/129/4 45/130/4 48/131/4 42/132/4 
s 16
f 42/133/10 48/134/10 47/135/10 43/136/5 
s 32
f 43/137/6 47/138/6 46/139/6 44/140/6 
s 64
f 44/141/11 46/142/3 45/143/11 41/144/11 
s 2
f 49/145/7 50/146/7 51/147/7 52/148/7 
s 4
f 53/149/2 54/150/2 55/151/2 56/152/2 
s 8
f 49/153/8 53/154/8 56/155/8 50/156/3 
s 16
f 50/157/4 56/158/4 55/159/4 51/160/4 
s 32
f 51/161/9 55/162/9 54/163/9 52/164/5 
s 64
f 52/165/6 54/166/6 53/167/6 49/168/6 
s 2
f 57/169/12 58/170/12 59/171/12 60/172/1 
s 4
f 61/173/2 62/174/2 63/175/2 64/176/2 
s 8
f 57/177/4 61/178/4 64/179/4 58/180/4 
s 16
f 58/181/10 64/182/10 63/183/10 59/184/5 
s 32
f 59/185/6 63/186/6 62/187/6 60/188/6 
s 64
f 60/189/11 62/190/3 61/191/11 57/192/11 
usemtl Metal
s 1
f 65/193/13 66/194/14 67/195/14 68/196/13 
f 69/197/15 70/198/16 71/199/16 72/200/15 
f 73/201/17 74/202/18 75/203/19 76/204/8 
f 70/198/16 77/205/2 78/206/20 71/199/16 
f 79/207/21 80/208/12 81/209/22 82/210/22 
f 83/211/23 76/204/8 75/203/19 84/212/23 
f 83/211/23 84/212/23 67/195/14 66/194/14 
f 65/193/13 68/196/13 82/210/22 81/209/22 
f 85/213/24 69/197/15 72/200/15 86/214/24 
f 85/213/24 86/214/24 74/202/18 73/201/17 
s 2
f 66/215/25 87/216/25 76/217/25 83/218/26 
f 88/219/25 87/216/25 66/215/25 65/220/25 
f 81/221/27 89/222/26 88/219/25 65/220/25 
f 88/219/25 89/222/26 70/223/26 69/224/26 
f 85/225/6 87/216/25 88/219/25 69/224/26 
f 76/217/25 87/216/25 85/225/6 73/226/6 
f 90/227/27 89/222/26 81/221/27 80/228/27 
f 70/223/26 89/222/26 90/227/27 77/205/26 
s 4
f 77/205/9 90/227/9 91/229/5 78/206/5 
f 91/229/5 90/227/9 80/228/5 79/230/5 
s 2
f 82/231/28 92/232/28 91/229/29 79/230/29 
f 75/233/4 93/234/4 67/235/28 84/236/30 
f 94/237/29 92/232/28 82/231/28 68/238/28 
f 67/235/28 93/234/4 94/237/29 68/238/28 
f 91/229/29 92/232/28 71/239/29 78/206/29 
f 71/239/29 92/232/28 94/237/29 72/240/29 
f 94/237/29 93/234/4 86/241/4 72/240/29 
f 86/241/4 93/234/4 75/233/4 74/242/4 
usemtl White
s 1
f 95/243/1 96/244/1 97/245/1 98/246/1 
f 99/247/2 100/248/2 101/249/2 102/250/2 
s 2
f 95/251/4 99/252/4 102/253/4 96/254/4 
s 4
f 96/255/31 102/256/9 101/257/31 97/258/31 
s 2
f 97/259/6 101/260/6 100/261/6 98/262/6 
s 4
f 98/263/3 100/264/3 99/265/3 95/51/3 
# 82 polygons

